<svg width="41" height="40" viewBox="0 0 41 40" fill="none" xmlns="http://www.w3.org/2000/svg">
<g id="icon" clip-path="url(#clip0_82_27)">
<rect id="Rectangle 20" x="0.5" y="16.6666" width="23.3333" height="23.3333" fill="#D5B666"/>
<path id="Vector" d="M11.1001 31.3L11.5168 35L14.2168 32.4333L18.8334 19.7667C17.7001 19.4833 16.7001 18.9167 15.8834 18.1333L11.1001 31.3ZM25.1168 18.1333C24.3001 18.9167 23.2834 19.4833 22.1668 19.7667L26.7834 32.4333L29.4834 35L29.9168 31.3L25.1168 18.1333ZM25.4001 14.3333C25.9001 11.7333 24.4001 9.43333 22.1668 8.63333V6.66667C22.1668 5.75 21.4168 5 20.5001 5C19.5834 5 18.8334 5.75 18.8334 6.66667V8.63333C16.9001 9.33333 15.5001 11.1667 15.5001 13.3333C15.5001 16.4 18.2668 18.8333 21.4334 18.25C23.4001 17.8833 25.0168 16.3 25.4001 14.3333ZM20.5001 15C19.5834 15 18.8334 14.25 18.8334 13.3333C18.8334 12.4167 19.5834 11.6667 20.5001 11.6667C21.4168 11.6667 22.1668 12.4167 22.1668 13.3333C22.1668 14.25 21.4168 15 20.5001 15Z" fill="#6D5515"/>
</g>
<defs>
<clipPath id="clip0_82_27">
<rect width="40" height="40" fill="white" transform="translate(0.5)"/>
</clipPath>
</defs>
</svg>
