<svg width="40" height="40" viewBox="0 0 40 40" fill="none" xmlns="http://www.w3.org/2000/svg">
<g id="icon">
<rect id="Rectangle 20" y="16.6666" width="23.3333" height="23.3333" fill="#D5B666"/>
<path id="Vector" d="M18.3333 9.99995H23.3333L28.8166 4.49996C28.9716 4.34374 29.1559 4.21975 29.359 4.13514C29.5621 4.05052 29.7799 4.00696 30 4.00696C30.22 4.00696 30.4378 4.05052 30.6409 4.13514C30.844 4.21975 31.0284 4.34374 31.1833 4.49996L35.4833 8.81662C35.7937 9.12889 35.968 9.55131 35.968 9.99162C35.968 10.4319 35.7937 10.8544 35.4833 11.1666L31.6666 15H18.3333V18.3333C18.3333 18.7753 18.1577 19.1992 17.8451 19.5118C17.5326 19.8244 17.1087 20 16.6666 20C16.2246 20 15.8007 19.8244 15.4881 19.5118C15.1756 19.1992 15 18.7753 15 18.3333V13.3333C15 12.4492 15.3512 11.6014 15.9763 10.9763C16.6014 10.3511 17.4492 9.99995 18.3333 9.99995ZM8.3333 18.3333V25L4.51664 28.8166C4.20622 29.1289 4.03198 29.5513 4.03198 29.9916C4.03198 30.4319 4.20622 30.8544 4.51664 31.1666L8.81664 35.4833C8.97157 35.6395 9.15591 35.7635 9.35901 35.8481C9.56211 35.9327 9.77995 35.9763 9.99997 35.9763C10.22 35.9763 10.4378 35.9327 10.6409 35.8481C10.844 35.7635 11.0284 35.6395 11.1833 35.4833L18.3333 28.3333H25C25.442 28.3333 25.8659 28.1577 26.1785 27.8451C26.491 27.5326 26.6666 27.1086 26.6666 26.6666V25H28.3333C28.7753 25 29.1993 24.8244 29.5118 24.5118C29.8244 24.1992 30 23.7753 30 23.3333V21.6666H31.6666C32.1087 21.6666 32.5326 21.491 32.8451 21.1785C33.1577 20.8659 33.3333 20.442 33.3333 20V18.3333H21.6666V20C21.6666 20.884 21.3154 21.7319 20.6903 22.357C20.0652 22.9821 19.2174 23.3333 18.3333 23.3333H15C14.1159 23.3333 13.2681 22.9821 12.6429 22.357C12.0178 21.7319 11.6666 20.884 11.6666 20V15L8.3333 18.3333Z" fill="#6D5515"/>
</g>
</svg>
