<svg width="41" height="40" viewBox="0 0 41 40" fill="none" xmlns="http://www.w3.org/2000/svg">
<g id="icon" clip-path="url(#clip0_82_53)">
<rect id="Rectangle 20" x="0.5" y="16.6666" width="23.3333" height="23.3333" fill="#D5B666"/>
<path id="Vector" d="M30.5 26.6666H27.1667V25H13.8334V26.6666H10.5V25H3.83337V33.3333H37.1667V25H30.5V26.6666ZM33.8334 13.3333H28.8334V9.99996C28.8334 8.16663 27.3334 6.66663 25.5 6.66663H15.5C13.6667 6.66663 12.1667 8.16663 12.1667 9.99996V13.3333H7.16671C5.33337 13.3333 3.83337 14.8333 3.83337 16.6666V23.3333H10.5V20H13.8334V23.3333H27.1667V20H30.5V23.3333H37.1667V16.6666C37.1667 14.8333 35.6667 13.3333 33.8334 13.3333ZM25.5 13.3333H15.5V9.99996H25.5V13.3333Z" fill="white"/>
</g>
<defs>
<clipPath id="clip0_82_53">
<rect width="40" height="40" fill="white" transform="translate(0.5)"/>
</clipPath>
</defs>
</svg>
